# xmcd CD database file generated by OrangeCD 5.2
#
# Track frame offsets:
#	150
#	13137
#	27997
#	41657
#	53345
#	66557
#	81302
#	95690
#	107502
#	121850
#	135017
#	147882
#
# Disc length: 2145 seconds
#
# Revision: 24
# Processed by: cddbd v1.5.1PL2 Copyright (c) Steve Scherf et al.
# Submitted via: OrangeCD 5.2
#
DISCID=9a085f0c
DTITLE=Various Artist - 70's Rock Vol. 2
DYEAR=1999
DGENRE=Pop
TTITLE0=Christie - Yellow River
TTITLE1=Paper Lace - The Night Chicago Died
TTITLE2=Daniel Boone - Beautiful Sunday
TTITLE3=Edison Lighthouse - Love Grows (Where My Rosemary Goes)
TTITLE4=Vanity Fare - Hitchin' A Ride
TTITLE5=Hamilton, Joe Frank and Reynolds - Don't Pull Your Love
TTITLE6=Edward Bear - Last Song
TTITLE7=White Plains - My Baby Loves Lovin'
TTITLE8=Lobo - Me And You And A Dog Named Boo
TTITLE9=Gallery - I Believe In Music
TTITLE10=Wadsworth Mansion - Sweet Mary
TTITLE11=Paul Revere and The Raiders - Indian Reservation (The Lament Of The Cher
TTITLE11=okee Reservation Indian
EXTD=
EXTT0=
EXTT1=
EXTT2=
EXTT3=
EXTT4=
EXTT5=
EXTT6=
EXTT7=
EXTT8=
EXTT9=
EXTT10=
EXTT11=
PLAYORDER=
